<svg version="1.2" xmlns="http://www.w3.org/2000/svg" viewBox="0 0 24 24" width="24" height="24">
	<title>carnetIcon-svg</title>
	<style>
		.s0 { fill: #707070 } 
	</style>
	<path id="Layer" fill-rule="evenodd" class="s0" d="m3 7c0-1.1 0.9-2 2-2h14c1.1 0 2 0.9 2 2v9.8c0 1.1-0.9 2-2 2h-14c-1.1 0-2-0.9-2-2zm1.5 10.3h15v-10.8h-15zm8.5-2c0 0.3-0.2 0.5-0.5 0.5h-6c-0.3 0-0.5-0.2-0.5-0.5 0-1.4 1.1-2.5 2.5-2.5h2c1.4 0 2.5 1.1 2.5 2.5zm5.3-5.9c0 0.4-0.4 0.7-0.8 0.7h-3c-0.4 0-0.7-0.3-0.7-0.7 0-0.4 0.3-0.8 0.7-0.8h3c0.4 0 0.8 0.4 0.8 0.8zm-8.8 2.4c-1.1 0-2-0.8-2-1.9 0-1.1 0.9-2 2-2 1.1 0 2 0.9 2 2 0 1.1-0.9 1.9-2 1.9zm8.8 0c0 0.5-0.4 0.8-0.8 0.8h-3c-0.4 0-0.7-0.3-0.7-0.8 0-0.4 0.3-0.7 0.7-0.7h3c0.4 0 0.8 0.3 0.8 0.7z"/>
</svg>