<svg version="1.2" xmlns="http://www.w3.org/2000/svg" viewBox="0 0 24 24" width="24" height="24">
	<title>flagIcon-svg</title>
	<style>
		.s0 { fill: #707070 } 
	</style>
	<path id="Layer" fill-rule="evenodd" class="s0" d="m20 5v9.4c0 0.4-0.2 0.7-0.7 0.9-1.3 0.5-2.4 0.7-3.4 0.7-2.3 0-3.9-1-6.3-1-1.1 0-2.4 0.3-4.1 1v3.2c0 0.5-0.3 0.8-0.8 0.8-0.4 0-0.7-0.3-0.7-0.8v-14.5c0-0.4 0.3-0.7 0.7-0.7 0.5 0 0.8 0.3 0.8 0.7v0.3c1.9-0.7 3.2-1 4.3-1 2.1 0 3.2 1 5.1 1 0.9 0 2-0.2 3.4-0.9q0.3-0.1 0.6-0.1c0.6 0 1.1 0.3 1.1 1zm-1.5 9v-8.3c-1.3 0.5-2.5 0.8-3.6 0.8-1.1 0-2-0.3-2.8-0.5-0.8-0.3-1.4-0.5-2.3-0.5-1 0-2.3 0.3-3.7 0.9l-0.6 0.2v7.8q2.2-0.9 4.2-0.9c1.3 0 2.4 0.3 3.4 0.5 0.9 0.3 1.8 0.5 2.8 0.5q1.2 0 2.6-0.5z"/>
</svg>